<svg xmlns="http://www.w3.org/2000/svg" viewBox="0 0 400 420" width="400" height="420">
  <defs>
    <!-- 主金色渐变：体现萨卡兹魔王的权威 -->
    <linearGradient id="crownGold" x1="0%" y1="0%" x2="100%" y2="100%">
      <stop offset="0%" stop-color="#F5D78E"/>
      <stop offset="40%" stop-color="#E8B94A"/>
      <stop offset="70%" stop-color="#C98B2A"/>
      <stop offset="100%" stop-color="#8B6914"/>
    </linearGradient>
    <!-- 深紫背景：体现神秘与王者气息 -->
    <radialGradient id="bgGlow" cx="50%" cy="40%" r="60%">
      <stop offset="0%" stop-color="#1E1535"/>
      <stop offset="100%" stop-color="#0A0810"/>
    </radialGradient>
    <!-- 内圈光晕 -->
    <radialGradient id="innerGlow" cx="50%" cy="50%" r="50%">
      <stop offset="0%" stop-color="#3D2B6B" stop-opacity="0.6"/>
      <stop offset="100%" stop-color="#0A0810" stop-opacity="0"/>
    </radialGradient>
    <!-- 宝石折射光 -->
    <linearGradient id="gemRefract" x1="0%" y1="0%" x2="100%" y2="100%">
      <stop offset="0%" stop-color="#FFE8A0" stop-opacity="0.3"/>
      <stop offset="50%" stop-color="#E8B94A" stop-opacity="0"/>
      <stop offset="100%" stop-color="#C98B2A" stop-opacity="0.2"/>
    </linearGradient>
    <!-- 外圈光环 -->
    <filter id="glowFilter" x="-30%" y="-30%" width="160%" height="160%">
      <feGaussianBlur in="SourceGraphic" stdDeviation="4" result="blur"/>
      <feMerge>
        <feMergeNode in="blur"/>
        <feMergeNode in="SourceGraphic"/>
      </feMerge>
    </filter>
    <!-- 柔和光晕 -->
    <filter id="softGlow" x="-50%" y="-50%" width="200%" height="200%">
      <feGaussianBlur in="SourceGraphic" stdDeviation="8" result="blur"/>
      <feMerge>
        <feMergeNode in="blur"/>
        <feMergeNode in="SourceGraphic"/>
      </feMerge>
    </filter>
    <!-- 王冠发光滤镜 -->
    <filter id="crownGlow" x="-20%" y="-20%" width="140%" height="140%">
      <feGaussianBlur in="SourceGraphic" stdDeviation="3" result="blur"/>
      <feColorMatrix in="blur" type="matrix"
        values="1 0.8 0 0 0.1
                0.8 0.6 0 0 0
                0 0 0 0 0
                0 0 0 0.8 0" result="goldBlur"/>
      <feMerge>
        <feMergeNode in="goldBlur"/>
        <feMergeNode in="SourceGraphic"/>
      </feMerge>
    </filter>
  </defs>

  <!-- ===== 深紫背景 ===== -->
  <rect width="400" height="420" fill="#080610"/>
  <rect width="400" height="420" fill="url(#bgGlow)"/>

  <!-- ===== 背景装饰：六芒星（代表Skill的完整结构）===== -->
  <g opacity="0.07" fill="none" stroke="#E8B94A" stroke-width="0.5">
    <!-- 外圈六芒 -->
    <polygon points="200,28 285,100 285,220 200,292 115,220 115,100" />
    <!-- 内圈六芒 -->
    <polygon points="200,68 255,115 255,185 200,232 145,185 145,115" />
    <!-- 射线 -->
    <line x1="200" y1="28" x2="200" y2="68"/>
    <line x1="285" y1="100" x2="255" y2="115"/>
    <line x1="285" y1="220" x2="255" y2="185"/>
    <line x1="200" y1="292" x2="200" y2="232"/>
    <line x1="115" y1="220" x2="145" y2="185"/>
    <line x1="115" y1="100" x2="145" y2="115"/>
  </g>

  <!-- ===== 背景光晕 ===== -->
  <ellipse cx="200" cy="170" rx="130" ry="130" fill="url(#innerGlow)"/>

  <!-- ===== 主体：菱形宝石容器（Skill的隐喻）===== -->
  <!-- 外层菱形边框 -->
  <polygon
    points="200,25 330,145 200,265 70,145"
    fill="none"
    stroke="url(#crownGold)"
    stroke-width="2.5"
    opacity="0.9"
    filter="url(#glowFilter)"/>

  <!-- 宝石底面（第二层） -->
  <polygon
    points="200,45 305,150 200,255 95,150"
    fill="#0E0B1E"
    stroke="#C98B2A"
    stroke-width="1"
    opacity="0.8"/>

  <!-- 宝石内部填充（折射效果） -->
  <polygon
    points="200,45 305,150 200,255 95,150"
    fill="url(#gemRefract)"
    opacity="0.4"/>

  <!-- 内层菱形（核心区域） -->
  <polygon
    points="200,65 280,150 200,235 120,150"
    fill="#13102A"
    stroke="#E8B94A"
    stroke-width="0.8"
    opacity="0.5"/>

  <!-- ===== 萨卡兹魔王王冠（特蕾西娅/项目核心角色的象征）===== -->
  <g filter="url(#crownGlow)">
    <!-- 王冠主体基座 -->
    <path d="M145,190 L155,175 L165,185 L175,165 L185,180 L192,158 L200,170 L208,158 L215,180 L225,165 L235,185 L245,175 L255,190"
      fill="none"
      stroke="url(#crownGold)"
      stroke-width="2.2"
      stroke-linecap="round"
      stroke-linejoin="round"/>

    <!-- 王冠主尖顶（最高点） -->
    <path d="M192,158 L200,135 L208,158"
      fill="url(#crownGold)"
      stroke="#F5D78E"
      stroke-width="0.5"/>

    <!-- 王冠左尖 -->
    <path d="M175,165 L165,145 L185,165"
      fill="url(#crownGold)"
      opacity="0.8"/>

    <!-- 王冠右尖 -->
    <path d="M225,165 L235,145 L215,165"
      fill="url(#crownGold)"
      opacity="0.8"/>

    <!-- 冠底珍珠装饰 -->
    <circle cx="150" cy="192" r="3" fill="#F5D78E" opacity="0.7"/>
    <circle cx="175" cy="196" r="2.5" fill="#F5D78E" opacity="0.6"/>
    <circle cx="200" cy="198" r="3.5" fill="#F5D78E" opacity="0.8"/>
    <circle cx="225" cy="196" r="2.5" fill="#F5D78E" opacity="0.6"/>
    <circle cx="250" cy="192" r="3" fill="#F5D78E" opacity="0.7"/>
  </g>

  <!-- ===== 光芒射线（从王冠散发，代表Skill的力量）===== -->
  <g opacity="0.15" stroke="#E8B94A" stroke-width="0.8" stroke-linecap="round">
    <line x1="200" y1="130" x2="200" y2="95"/>
    <line x1="230" y1="140" x2="248" y2="112"/>
    <line x1="248" y1="165" x2="275" y2="155"/>
    <line x1="170" y1="140" x2="152" y2="112"/>
    <line x1="152" y1="165" x2="125" y2="155"/>
    <line x1="240" y1="180" x2="262" y2="178"/>
    <line x1="160" y1="180" x2="138" y2="178"/>
  </g>

  <!-- ===== 菱形四个角的装饰宝石 ===== -->
  <g fill="url(#crownGold)" opacity="0.9">
    <polygon points="200,25 206,31 200,37 194,31" filter="url(#glowFilter)"/>
    <polygon points="330,145 324,139 330,133 336,139" filter="url(#glowFilter)"/>
    <polygon points="200,265 206,259 200,253 194,259" filter="url(#glowFilter)"/>
    <polygon points="70,145 76,139 70,133 64,139" filter="url(#glowFilter)"/>
  </g>

  <!-- 角的辅助光芒 -->
  <g opacity="0.2" stroke="#F5D78E" stroke-width="0.6">
    <line x1="200" y1="25" x2="200" y2="10"/>
    <line x1="330" y1="145" x2="345" y2="145"/>
    <line x1="200" y1="265" x2="200" y2="280"/>
    <line x1="70" y1="145" x2="55" y2="145"/>
  </g>

  <!-- ===== 底部分隔线 ===== -->
  <line x1="40" y1="305" x2="360" y2="305"
    stroke="#C98B2A" stroke-width="0.6" opacity="0.4"/>

  <!-- ===== 项目名称 ===== -->
  <!-- 主标题 -->
  <text x="200" y="335"
    font-family="'Segoe UI', 'Helvetica Neue', Arial, sans-serif"
    font-size="22"
    font-weight="700"
    fill="url(#crownGold)"
    text-anchor="middle"
    letter-spacing="2">
    arknights-operator-skill
  </text>

  <!-- 副标题 -->
  <text x="200" y="360"
    font-family="'PingFang SC', 'Microsoft YaHei', 'Segoe UI', sans-serif"
    font-size="13"
    fill="#8B7BA8"
    text-anchor="middle"
    letter-spacing="4">
    角色蒸馏工具 · 知识与人格分离 · 5层结构 · 持续进化
  </text>

  <!-- 底部标签 -->
  <g opacity="0.6">
    <rect x="72" y="378" width="52" height="18" rx="4"
      fill="none" stroke="#C98B2A" stroke-width="0.8"/>
    <text x="98" y="390"
      font-family="monospace"
      font-size="9"
      fill="#E8B94A"
      text-anchor="middle">
      MIT License
    </text>

    <rect x="132" y="378" width="65" height="18" rx="4"
      fill="none" stroke="#6B5B95" stroke-width="0.8"/>
    <text x="164" y="390"
      font-family="monospace"
      font-size="9"
      fill="#8B7BA8"
      text-anchor="middle">
      Python 3.10+
    </text>

    <rect x="205" y="378" width="75" height="18" rx="4"
      fill="none" stroke="#6B5B95" stroke-width="0.8"/>
    <text x="242" y="390"
      font-family="monospace"
      font-size="9"
      fill="#8B7BA8"
      text-anchor="middle">
      AgentSkills
    </text>

    <rect x="288" y="378" width="48" height="18" rx="4"
      fill="none" stroke="#6B5B95" stroke-width="0.8"/>
    <text x="312" y="390"
      font-family="monospace"
      font-size="9"
      fill="#8B7BA8"
      text-anchor="middle">
      AI + ML
    </text>
  </g>

  <!-- 底部装饰小点 -->
  <g fill="#C98B2A" opacity="0.4">
    <circle cx="50" cy="405" r="1.5"/>
    <circle cx="62" cy="408" r="1"/>
    <circle cx="350" cy="405" r="1.5"/>
    <circle cx="338" cy="408" r="1"/>
  </g>
</svg>
